<svg version="1" xmlns="http://www.w3.org/2000/svg" width="533.333" height="533.333" viewBox="0 0 400.000000 400.000000"><path d="M179.5 61.5c-68.4 10.6-120 57.2-130 117.4-2.5 14.5-1.7 35.7 1.8 49.1 12.2 47.4 48.2 83.9 99.5 101 18.4 6.2 32.2 8.3 54.2 8.3 14.4 0 21.1-.5 30.2-2.1 58.6-10.6 105.3-48.8 121.2-99.1 7.7-24.3 7.5-52.6-.4-76.3-14.1-41.9-49.3-75.7-94.9-90.8-19.8-6.6-28.9-8.1-52.1-8.5-14.4-.3-23.2 0-29.5 1zm47 70.4c16.8 4.3 34.2 15.3 43.3 27.5 29.9 39.7 8.4 92.6-43.3 106.2-9.7 2.6-33.3 2.6-42.4.1-31.9-8.7-53.1-30.7-57-59.2-4.4-31.2 17-61.9 50.7-73 15-4.9 33.4-5.5 48.7-1.6z"/><path d="M216.1 161.6c-14 3.8-26.3 13.8-32.6 26.8l-3.7 7.7.3 11.2c.4 10.7.6 11.7 4.1 18.8 14.5 29.4 55.4 36.6 79.8 14.2 24.1-22.2 18.2-60.2-11.7-75.2-9.7-4.9-25.5-6.4-36.2-3.5z"/></svg>