<svg version="1" xmlns="http://www.w3.org/2000/svg" width="533.333" height="533.333" viewBox="0 0 400.000000 400.000000"><path d="M201.7 59.6c-.1.1-4.8.4-10.5.8C146.9 63.1 100 87.1 76 119.5c-2.5 3.3-4.8 6.2-5.1 6.5-.4.3-2.9 4.5-5.8 9.4-11.7 20.5-17.2 40.4-17.3 62.4-.1 34.3 13.5 66.4 39.2 92.3 12.8 13 23.3 20.6 40 29.1 52 26.6 118 24.2 167.5-6.2 17.6-10.7 34.6-26.8 45.2-42.6 15-22.4 22.3-45.4 22.6-70.9 0-4.1-1.3-20.7-1.8-22.5-.1-.3-.7-3.2-1.4-6.5-4.7-21.6-18.3-45.6-35.6-63-23.8-24-53.7-39.2-89-45.4-7.6-1.3-31.9-3.2-32.8-2.5zm18.8 70.7c33.5 7.7 56 28.1 61.9 56.1 5.9 28.4-10.2 58.5-38.9 72.8-4 2-13.9 5.8-16.5 6.3-10.9 2.2-12.7 2.4-21.3 2.5-29.2.4-56.7-14.2-70.2-37.2-7.5-12.7-10.7-29.2-8.3-41.8.5-2.5 1.1-5.6 1.4-6.9.8-3.7 5.9-14.6 9.4-19.6 6.2-9 15.3-17.1 25.4-22.6 14.4-7.7 27.5-10.8 44.1-10.3 6.1.1 11.9.5 13 .7z"/><path d="M216.1 161.6c-12.7 3.4-25.9 13.6-31.1 23.9-1.4 2.8-2.9 5.3-3.5 5.7-.6.4-1 6.3-1 14.1v13.3l3.7 7.5c14.5 29.4 55.4 36.6 79.8 14.2 24.1-22.2 18.2-60.2-11.7-75.2-9.7-4.9-25.5-6.4-36.2-3.5z"/></svg>