<?xml version="1.0" standalone="no"?>
<!DOCTYPE svg PUBLIC "-//W3C//DTD SVG 20010904//EN"
 "http://www.w3.org/TR/2001/REC-SVG-20010904/DTD/svg10.dtd">
<svg version="1.0" xmlns="http://www.w3.org/2000/svg"
 width="336.000000pt" height="336.000000pt" viewBox="0 0 336.000000 336.000000"
 preserveAspectRatio="xMidYMid meet">
<metadata>
Created by potrace 1.11, written by Peter Selinger 2001-2013
</metadata>
<g transform="translate(0.000000,336.000000) scale(0.100000,-0.100000)"
fill="#000000" stroke="none">
<path d="M1697 3084 c-1 -1 -48 -4 -104 -8 -56 -3 -148 -15 -205 -27 -890
-181 -1417 -968 -1167 -1744 131 -409 496 -758 951 -910 238 -79 478 -106 743
-82 299 27 640 163 872 348 67 55 232 231 279 299 103 151 182 328 209 470 3
14 7 36 10 49 9 49 16 129 17 206 7 603 -438 1144 -1097 1334 -73 21 -89 24
-190 41 -90 14 -309 31 -318 24z m180 -707 c4 -3 24 -8 43 -11 136 -23 287
-104 399 -215 340 -336 225 -868 -233 -1076 -132 -60 -184 -70 -361 -69 -148
0 -167 2 -245 28 -187 62 -319 155 -415 291 -236 337 -112 776 274 969 136 68
263 96 423 91 59 -2 110 -5 115 -8z"/>
<path d="M1841 2064 c-140 -38 -263 -138 -326 -268 l-37 -77 3 -112 c4 -107 6
-117 41 -188 145 -294 554 -366 798 -142 241 222 182 602 -117 752 -97 49
-255 64 -362 35z"/>
</g>
</svg>
